<?xml version="1.0" encoding="UTF-8"?>
<svg xmlns="http://www.w3.org/2000/svg" width="1200" height="800" viewBox="0 0 1200 800"><rect width="1200" height="800" fill="hsl(126 55% 42%)"/><rect x="409" y="92" width="407" height="79" rx="7" fill="hsl(43.95791070908308 89% 49%)" opacity="0.526" transform="rotate(34.6 612.5 131.5)"/><rect x="715" y="27" width="304" height="185" rx="16" fill="hsl(84.97895535454154 87% 49%)" opacity="0.502" transform="rotate(32.4 867 119.5)"/><rect x="850" y="250" width="278" height="188" rx="16" fill="hsl(126 55% 42%)" opacity="0.410" transform="rotate(-25.9 989 344)"/><rect x="626" y="310" width="348" height="126" rx="18" fill="hsl(167.02104464545846 79% 66%)" opacity="0.710" transform="rotate(8 800 373)"/><rect x="271" y="83" width="108" height="227" rx="16" fill="hsl(208.04208929091692 66% 48%)" opacity="0.454" transform="rotate(-20 325 196.5)"/><rect x="296" y="361" width="160" height="143" rx="11" fill="hsl(43.95791070908308 89% 49%)" opacity="0.680" transform="rotate(4.9 376 432.5)"/><rect x="61" y="210" width="131" height="228" rx="13" fill="hsl(84.97895535454154 87% 49%)" opacity="0.716" transform="rotate(-19.9 126.5 324)"/><rect x="582" y="569" width="447" height="212" rx="17" fill="hsl(126 55% 42%)" opacity="0.727" transform="rotate(37.3 805.5 675)"/><rect x="229" y="81" width="330" height="239" rx="9" fill="hsl(167.02104464545846 79% 66%)" opacity="0.482" transform="rotate(17.3 394 200.5)"/><rect x="281" y="280" width="302" height="270" rx="3" fill="hsl(208.04208929091692 66% 48%)" opacity="0.741" transform="rotate(2.9 432 415)"/><rect x="514" y="81" width="96" height="258" rx="9" fill="hsl(43.95791070908308 89% 49%)" opacity="0.540" transform="rotate(28.5 562 210)"/><rect x="580" y="630" width="139" height="86" rx="8" fill="hsl(84.97895535454154 87% 49%)" opacity="0.783" transform="rotate(11.7 649.5 673)"/><rect x="808" y="579" width="225" height="187" rx="5" fill="hsl(126 55% 42%)" opacity="0.533" transform="rotate(-14.3 920.5 672.5)"/><rect x="141" y="544" width="210" height="122" rx="15" fill="hsl(167.02104464545846 79% 66%)" opacity="0.366" transform="rotate(-26.3 246 605)"/><rect x="317" y="94" width="337" height="91" rx="8" fill="hsl(208.04208929091692 66% 48%)" opacity="0.741" transform="rotate(-39.6 485.5 139.5)"/><rect x="632" y="456" width="185" height="100" rx="17" fill="hsl(43.95791070908308 89% 49%)" opacity="0.462" transform="rotate(-38.3 724.5 506)"/><rect x="52" y="207" width="359" height="151" rx="1" fill="hsl(84.97895535454154 87% 49%)" opacity="0.530" transform="rotate(-9.4 231.5 282.5)"/><rect x="94" y="493" width="125" height="163" rx="13" fill="hsl(126 55% 42%)" opacity="0.701" transform="rotate(25.4 156.5 574.5)"/></svg>
