<?xml version="1.0" encoding="UTF-8"?>
<svg xmlns="http://www.w3.org/2000/svg" width="1200" height="800" viewBox="0 0 1200 800"><rect width="1200" height="800" fill="hsl(41 62% 48%)"/><rect x="583" y="221" width="341" height="73" rx="13" fill="hsl(293.30462297797203 79% 49%)" opacity="0.451" transform="rotate(18.4 753.5 257.5)"/><rect x="328" y="345" width="270" height="243" rx="17" fill="hsl(347.152311488986 90% 68%)" opacity="0.573" transform="rotate(-35.6 463 466.5)"/><rect x="312" y="364" width="257" height="151" rx="6" fill="hsl(41 62% 48%)" opacity="0.755" transform="rotate(28.8 440.5 439.5)"/><rect x="198" y="104" width="371" height="203" rx="3" fill="hsl(94.84768851101398 59% 65%)" opacity="0.638" transform="rotate(18.3 383.5 205.5)"/><rect x="67" y="374" width="217" height="188" rx="16" fill="hsl(148.69537702202797 56% 60%)" opacity="0.388" transform="rotate(3 175.5 468)"/><rect x="221" y="496" width="176" height="162" rx="16" fill="hsl(293.30462297797203 79% 49%)" opacity="0.584" transform="rotate(-3 309 577)"/><rect x="293" y="358" width="220" height="303" rx="6" fill="hsl(347.152311488986 90% 68%)" opacity="0.379" transform="rotate(-36.3 403 509.5)"/><rect x="8" y="418" width="183" height="289" rx="15" fill="hsl(41 62% 48%)" opacity="0.461" transform="rotate(27.9 99.5 562.5)"/><rect x="216" y="509" width="211" height="153" rx="5" fill="hsl(94.84768851101398 59% 65%)" opacity="0.467" transform="rotate(10 321.5 585.5)"/><rect x="394" y="286" width="180" height="102" rx="10" fill="hsl(148.69537702202797 56% 60%)" opacity="0.485" transform="rotate(-17.7 484 337)"/><rect x="290" y="379" width="212" height="158" rx="16" fill="hsl(293.30462297797203 79% 49%)" opacity="0.425" transform="rotate(-21.4 396 458)"/><rect x="592" y="308" width="299" height="70" rx="11" fill="hsl(347.152311488986 90% 68%)" opacity="0.604" transform="rotate(-3.4 741.5 343)"/><rect x="489" y="196" width="259" height="70" rx="10" fill="hsl(41 62% 48%)" opacity="0.589" transform="rotate(-13.2 618.5 231)"/><rect x="253" y="195" width="279" height="146" rx="13" fill="hsl(94.84768851101398 59% 65%)" opacity="0.395" transform="rotate(11.4 392.5 268)"/><rect x="480" y="219" width="353" height="122" rx="10" fill="hsl(148.69537702202797 56% 60%)" opacity="0.774" transform="rotate(24.6 656.5 280)"/><rect x="783" y="1" width="221" height="79" rx="6" fill="hsl(293.30462297797203 79% 49%)" opacity="0.669" transform="rotate(-24.7 893.5 40.5)"/><rect x="799" y="416" width="394" height="150" rx="17" fill="hsl(347.152311488986 90% 68%)" opacity="0.403" transform="rotate(34 996 491)"/><rect x="598" y="494" width="121" height="90" rx="9" fill="hsl(41 62% 48%)" opacity="0.393" transform="rotate(2.3 658.5 539)"/></svg>
